<svg xmlns="http://www.w3.org/2000/svg" version="1.1" xmlns:xlink="http://www.w3.org/1999/xlink" xmlns:svgjs="http://svgjs.dev/svgjs" width="1000" height="1000" viewBox="0 0 1000 1000"><rect width="1000" height="1000" fill="#000000"></rect><g transform="matrix(0.7,0,0,0.7,149.5757576879421,455.63707796626)"><svg viewBox="0 0 396 51" data-background-color="#ffffff" preserveAspectRatio="xMidYMid meet" height="128" width="1000" xmlns="http://www.w3.org/2000/svg" xmlns:xlink="http://www.w3.org/1999/xlink"><g id="tight-bounds" transform="matrix(1,0,0,1,0.24000006346437885,-0.2487832174024618)"><svg viewBox="0 0 395.52 51.49756643480492" height="51.49756643480492" width="395.52"><g><svg viewBox="0 0 504.17613292450676 65.64483186721992" height="51.49756643480492" width="395.52"><g><rect width="5.535262350399736" height="65.64483186721992" x="88.6306549971444" y="0" fill="#ffffff" opacity="1" stroke-width="0" stroke="transparent" fill-opacity="1" class="rect-o-0" data-fill-palette-color="primary" rx="1%" id="o-0" data-palette-color="#f0cf90"></rect></g><g transform="matrix(1,0,0,1,108.65613292450679,0.16329560165974755)"><svg viewBox="0 0 395.52 65.31824066390043" height="65.31824066390043" width="395.52"><g><svg viewBox="0 0 395.52 65.31824066390043" height="65.31824066390043" width="395.52"><g><svg viewBox="0 0 395.52 65.31824066390043" height="65.31824066390043" width="395.52"><g transform="matrix(1,0,0,1,0,0)"><svg width="395.52" viewBox="2.0499956607818604 -35.54999923706055 301.2500305175781 46.75" height="65.31824066390043" data-palette-color="#f0cf90"><svg></svg><g class="undefined-text-0" data-fill-palette-color="primary" id="text-0"><path xmlns="http://www.w3.org/2000/svg" d="M12.9-35.25v0l11.8 0.3c1.7 0 3.017-0.033 3.95-0.1v0c0.1 0.6 0.15 1.333 0.15 2.2 0 0.867-0.233 1.533-0.7 2-0.467 0.467-1.283 0.7-2.45 0.7v0l-7.65-0.6c-0.5 0-0.917 0.017-1.25 0.05v0c-0.067 1.267-0.767 4.967-2.1 11.1v0c1.9-0.167 3.8-0.25 5.7-0.25 1.9 0 3.283 0.15 4.15 0.45v0c-0.133 1.533-0.45 2.767-0.95 3.7v0l-0.25 0.5c-0.933-0.3-2.357-0.45-4.27-0.45-1.92 0-3.68 0.067-5.28 0.2v0c-1.233 5.967-1.85 10.55-1.85 13.75v0 0.7c-1.767 0.867-4.867 1.3-9.3 1.3v0h-0.55c0-2.933 0.733-7.867 2.2-14.8 1.467-6.933 2.35-11.783 2.65-14.55v0c0-0.667-0.183-1.36-0.55-2.08-0.367-0.713-0.733-1.27-1.1-1.67v0l-0.55-0.55 0.1-1.15c2.467-0.5 5.167-0.75 8.1-0.75zM38.1-6.35v0c0 0.933 0.217 1.4 0.65 1.4v0c0.733 0 1.633-0.217 2.7-0.65v0l1.1 2.8c-3.067 2.267-6.033 3.4-8.9 3.4v0c-1.667 0-2.99-0.477-3.97-1.43-0.987-0.947-1.48-2.287-1.48-4.02 0-1.733 0.85-5.66 2.55-11.78 1.7-6.113 2.633-10.37 2.8-12.77v0c0-0.567-0.183-1.183-0.55-1.85-0.367-0.667-0.717-1.2-1.05-1.6v0l-0.55-0.6 0.1-1c2.1-0.7 5.817-1.05 11.15-1.05v0c0.533 1 0.8 2.067 0.8 3.2v0c0 1.933-0.89 6.15-2.67 12.65-1.787 6.5-2.68 10.933-2.68 13.3zM63.25 1.2v0c-1.4 0-3.44-0.733-6.12-2.2-2.687-1.467-4.247-2.25-4.68-2.35v0c-2 2.633-3.867 3.95-5.6 3.95v0c-0.467 0-1.167-0.65-2.1-1.95-0.933-1.3-1.4-2.517-1.4-3.65v0c0-0.5 0.517-1.127 1.55-1.88 1.033-0.747 2.217-1.27 3.55-1.57v0c0.9-2.1 1.793-5.283 2.68-9.55 0.88-4.267 1.32-8.017 1.32-11.25v0c0-0.533-0.173-1.133-0.52-1.8-0.353-0.667-0.697-1.2-1.03-1.6v0l-0.55-0.6 0.15-1c1.833-0.833 5.633-1.25 11.4-1.25v0c0.533 0.833 0.8 2.25 0.8 4.25 0 2-0.883 5.467-2.65 10.4-1.767 4.933-3.533 9.217-5.3 12.85v0c3.333 0.867 6.517 1.3 9.55 1.3v0c0.7 0 1.277-0.167 1.73-0.5 0.447-0.333 0.937-1.033 1.47-2.1v0l2.75 0.95c-0.533 3.167-1.34 5.55-2.42 7.15-1.087 1.6-2.613 2.4-4.58 2.4zM72.75 0.3v0h-0.6c0-1.933 0.933-7.05 2.8-15.35 1.867-8.3 2.8-12.883 2.8-13.75v0c0-1.4-0.517-2.733-1.55-4v0l-0.5-0.65 0.15-1c1.967-0.667 5.567-1 10.8-1v0c0.533 1.2 0.817 2.617 0.85 4.25v0c3.9-2.867 7.233-4.3 10-4.3v0c3.167 0 5.05 1.367 5.65 4.1v0c3.767-2.733 7.05-4.1 9.85-4.1v0c1.9 0 3.45 0.523 4.65 1.57 1.2 1.053 1.8 2.57 1.8 4.55 0 1.987-0.723 5.757-2.17 11.31-1.453 5.547-2.18 9.487-2.18 11.82v0c0 0.867 0.183 1.3 0.55 1.3v0c0.7 0 1.55-0.2 2.55-0.6v0l1.05 2.85c-3.1 2.2-6.167 3.3-9.2 3.3v0c-1.433 0-2.583-0.433-3.45-1.3-0.867-0.867-1.3-2.143-1.3-3.83 0-1.68 0.693-5.347 2.08-11 1.38-5.647 2.07-9.087 2.07-10.32 0-1.233-0.15-2.06-0.45-2.48-0.3-0.413-0.883-0.62-1.75-0.62-0.867 0-2.233 0.633-4.1 1.9v0c-0.233 1.533-0.75 4.017-1.55 7.45v0c-2.1 8.767-3.15 14.983-3.15 18.65v0c-1.633 0.867-4.45 1.3-8.45 1.3v0h-1.35c0-3.067 0.783-7.867 2.35-14.4 1.567-6.533 2.35-10.45 2.35-11.75 0-1.3-0.14-2.15-0.42-2.55-0.287-0.4-0.87-0.6-1.75-0.6-0.887 0-2.28 0.65-4.18 1.95v0c-0.3 1.667-0.917 4.433-1.85 8.3v0c-2.167 9.033-3.25 14.933-3.25 17.7v0c-1.467 0.867-4.517 1.3-9.15 1.3zM132.85-35.25v0l11.8 0.3c1.7 0 3.017-0.033 3.95-0.1v0c0.1 0.6 0.15 1.333 0.15 2.2 0 0.867-0.233 1.533-0.7 2-0.467 0.467-1.283 0.7-2.45 0.7v0l-7.65-0.6c-0.5 0-0.917 0.017-1.25 0.05v0c-0.067 1.267-0.767 4.967-2.1 11.1v0c1.9-0.167 3.8-0.25 5.7-0.25 1.9 0 3.283 0.15 4.15 0.45v0c-0.133 1.533-0.45 2.767-0.95 3.7v0l-0.25 0.5c-0.933-0.3-2.357-0.45-4.27-0.45-1.92 0-3.68 0.067-5.28 0.2v0c-1.233 5.967-1.85 10.55-1.85 13.75v0 0.7c-1.767 0.867-4.867 1.3-9.3 1.3v0h-0.55c0-2.933 0.733-7.867 2.2-14.8 1.467-6.933 2.35-11.783 2.65-14.55v0c0-0.667-0.183-1.36-0.55-2.08-0.367-0.713-0.733-1.27-1.1-1.67v0l-0.55-0.55 0.1-1.15c2.467-0.5 5.167-0.75 8.1-0.75zM157.65-0.95v0c-1.967 0.867-4.367 1.3-7.2 1.3v0c-0.967 0-1.833-0.083-2.6-0.25v0c0-2.2 0.943-7.16 2.83-14.88 1.88-7.713 2.82-12.57 2.82-14.57v0c0-0.8-0.6-1.867-1.8-3.2v0l-0.55-0.65 0.15-1.1c4.533-0.8 9.567-1.2 15.1-1.2v0c3.333 0 5.967 0.64 7.9 1.92 1.933 1.287 2.9 3.153 2.9 5.6 0 2.453-0.667 4.687-2 6.7-1.333 2.02-3.233 3.597-5.7 4.73v0c1.1 3.733 2.15 6.65 3.15 8.75 1 2.1 1.817 3.15 2.45 3.15v0c0.533 0 1.367-0.2 2.5-0.6v0l0.6-0.2 1.2 2.7c-2.933 2.233-6.023 3.35-9.27 3.35-3.253 0-5.38-1.633-6.38-4.9v0c-0.867-2.867-1.567-6.417-2.1-10.65v0h-1.75c-1.5 7-2.25 11.667-2.25 14zM161.95-19.3v0c1.067 0 1.993-0.333 2.78-1 0.78-0.667 1.37-1.533 1.77-2.6v0c0.733-2.1 1.1-4.133 1.1-6.1 0-1.967-0.883-2.95-2.65-2.95v0c-0.533 0-1.067 0.05-1.6 0.15v0c-0.033 1.033-0.85 5.167-2.45 12.4v0c0.233 0.067 0.583 0.1 1.05 0.1zM191.85 0.65v0c-4.2 0-7.433-1.35-9.7-4.05v0c-1.233-1.467-1.85-3.25-1.85-5.35v0c0-2.833 1-5.16 3-6.98 2-1.813 4.367-2.87 7.1-3.17v0c-4.2-1.133-6.3-3.55-6.3-7.25v0c0-2.867 1.233-5.143 3.7-6.83 2.467-1.68 5.277-2.52 8.43-2.52 3.147 0 5.77 0.65 7.87 1.95 2.1 1.3 3.15 3.017 3.15 5.15v0c0 1.233-0.333 2.4-1 3.5v0l-0.35 0.55c-1.367 0-2.833-0.21-4.4-0.63-1.567-0.413-2.75-0.953-3.55-1.62v0l0.5-5.1c-0.5-0.233-1-0.35-1.5-0.35v0c-1.033 0-1.823 0.55-2.37 1.65-0.553 1.1-0.83 2.383-0.83 3.85 0 1.467 0.16 2.633 0.48 3.5 0.313 0.867 0.813 1.523 1.5 1.97 0.68 0.453 1.28 0.77 1.8 0.95 0.513 0.187 1.237 0.38 2.17 0.58v0l-0.4 2.9c-2.3 0-4.417 0.65-6.35 1.95-1.933 1.3-2.9 3.05-2.9 5.25v0c0 1.567 0.5 2.707 1.5 3.42 1 0.72 2.193 1.08 3.58 1.08 1.38 0 2.837-0.35 4.37-1.05 1.533-0.7 2.85-1.583 3.95-2.65v0l2.25 2.25c-1.433 1.967-3.417 3.633-5.95 5-2.533 1.367-5.167 2.05-7.9 2.05zM208.5 0.3v0h-0.85c0-2 0.933-7.1 2.8-15.3 1.867-8.2 2.8-12.95 2.8-14.25v0c0-0.567-0.173-1.2-0.52-1.9-0.353-0.7-0.697-1.25-1.03-1.65v0l-0.5-0.65 0.15-1c2.067-0.7 5.667-1.05 10.8-1.05v0c0.6 1.267 0.9 2.7 0.9 4.3v0 0.1c4-2.933 7.5-4.4 10.5-4.4v0c1.767 0 3.217 0.523 4.35 1.57 1.133 1.053 1.7 2.553 1.7 4.5 0 1.953-0.767 5.88-2.3 11.78-1.533 5.9-2.3 9.49-2.3 10.77 0 1.287 0.217 1.93 0.65 1.93v0c0.6 0 1.5-0.217 2.7-0.65v0l1.05 2.85c-3.267 2.233-6.3 3.35-9.1 3.35v0c-1.6 0-2.823-0.427-3.67-1.28-0.853-0.847-1.28-2.253-1.28-4.22 0-1.967 0.727-5.71 2.18-11.23 1.447-5.513 2.17-8.937 2.17-10.27v0c0-1.7-0.75-2.55-2.25-2.55v0c-1.1 0-2.75 0.683-4.95 2.05v0c-0.3 1.6-0.933 4.367-1.9 8.3v0c-2.133 8.967-3.2 14.833-3.2 17.6v0c-1.467 0.867-4.433 1.3-8.9 1.3zM267.63-2.73c-0.653 1.453-1.437 2.48-2.35 3.08-0.92 0.6-2.087 0.9-3.5 0.9-1.42 0-3.77-0.693-7.05-2.08-3.287-1.38-5.73-2.07-7.33-2.07v0c-0.3 0.267-0.683 0.7-1.15 1.3v0c-1.033 1.467-1.817 2.2-2.35 2.2-0.533 0-1.167-0.277-1.9-0.83-0.733-0.547-1.35-1.153-1.85-1.82v0c1.267-2.5 2.983-5.01 5.15-7.53 2.167-2.513 4.533-5.23 7.1-8.15 2.567-2.913 4.783-5.837 6.65-8.77v0c-2.967-0.233-5.367-0.35-7.2-0.35v0c-2.733 0-4.8 0.417-6.2 1.25v0l-0.7 0.4c-0.267-0.567-0.6-1.577-1-3.03-0.4-1.447-0.6-2.653-0.6-3.62 0-0.967 0.083-1.75 0.25-2.35v0c2.033-0.9 4.077-1.35 6.13-1.35 2.047 0 4.563 0.2 7.55 0.6 2.98 0.4 5.197 0.6 6.65 0.6 1.447 0 3.037-0.183 4.77-0.55v0l1.15 2.55c-2.133 3.4-5.207 7.357-9.22 11.87-4.02 4.52-6.863 7.947-8.53 10.28v0c1.3 0.1 3.333 0.533 6.1 1.3 2.767 0.767 4.55 1.15 5.35 1.15v0c1.167 0 2.267-0.767 3.3-2.3v0l2.55 1c-0.533 2.767-1.123 4.873-1.77 6.32zM288.07 8.85c-1.447 0.967-2.727 1.6-3.84 1.9-1.12 0.3-2.353 0.45-3.7 0.45-1.353 0-2.59-0.45-3.71-1.35-1.113-0.9-1.67-2-1.67-3.3 0-1.3 0.327-2.407 0.98-3.32 0.647-0.92 1.587-1.697 2.82-2.33v0c2.167-1.133 4.9-2.05 8.2-2.75v0c0.233-0.533 0.617-1.75 1.15-3.65v0c-1.333 0.7-3.007 1.35-5.02 1.95-2.02 0.6-3.813 0.9-5.38 0.9-1.567 0-2.89-0.527-3.97-1.58-1.087-1.047-1.63-2.497-1.63-4.35 0-1.847 0.61-5.213 1.83-10.1 1.213-4.88 1.82-8.37 1.82-10.47v0c0-0.633-0.167-1.31-0.5-2.03-0.333-0.713-0.667-1.287-1-1.72v0l-0.45-0.6 0.15-1c2.067-0.667 5.633-1 10.7-1v0c0.633 1.1 0.95 2.573 0.95 4.42 0 1.853-0.633 5.397-1.9 10.63-1.267 5.233-1.9 8.333-1.9 9.3v0c0 1.667 0.583 2.5 1.75 2.5v0c1.6 0 3.517-0.6 5.75-1.8v0c1.1-4.667 2.033-9.25 2.8-13.75 0.767-4.5 1.15-7.767 1.15-9.8v0c1.067-0.433 2.5-0.783 4.3-1.05 1.8-0.267 3.283-0.4 4.45-0.4v0h1.1c0 2.567-0.683 7.083-2.05 13.55v0c-0.5 2.233-1.227 5.54-2.18 9.92-0.947 4.387-2.03 7.953-3.25 10.7-1.213 2.753-2.443 4.89-3.69 6.41-1.253 1.513-2.607 2.753-4.06 3.72zM278.85 5.65v0c0 0.733 0.483 1.1 1.45 1.1 0.967 0 2.033-0.557 3.2-1.67 1.167-1.12 2-2.263 2.5-3.43v0c-1.933 0.3-3.607 0.827-5.02 1.58-1.42 0.747-2.13 1.553-2.13 2.42z" fill="#ffffff" fill-rule="nonzero" stroke="none" stroke-width="1" stroke-linecap="butt" stroke-linejoin="miter" stroke-miterlimit="10" stroke-dasharray="" stroke-dashoffset="0" font-family="none" font-weight="none" font-size="none" text-anchor="none" style="mix-blend-mode: normal" data-fill-palette-color="primary" opacity="1"></path></g></svg></g></svg></g></svg></g></svg></g><g transform="matrix(1,0,0,1,0,0.16329560165974755)"><svg viewBox="0 0 74.14043942018175 65.31824066390043" height="65.31824066390043" width="74.14043942018175"><g><svg xmlns="http://www.w3.org/2000/svg" xmlns:xlink="http://www.w3.org/1999/xlink" version="1.1" x="0" y="0" viewBox="6.300000190734863 11.5 87.39999389648438 77" style="enable-background:new 0 0 100 100;" xml:space="preserve" height="65.31824066390043" width="74.14043942018175" class="icon-icon-0" data-fill-palette-color="accent" id="icon-0"><path d="M72.3 12.3L72.3 12.3 72.3 12.3l-0.4-0.8H28.2L6.3 50l21.8 38.5h43.7L93.7 50 72.3 12.3zM33.3 25.3L9.9 47.7l18.6-32.8L33.3 25.3zM70.7 14.8l6.4 35.7L36.9 25.8 70.7 14.8zM35.5 27.3l41 25.2-41 23.3V27.3zM77 54.5l-7.2 30.8-32.6-8.1L77 54.5zM33.5 75L9.9 50.5l23.6-22.7V75zM33.2 77.6l-4.6 7.7L11.5 55.1 33.2 77.6zM35 78.6l31.4 7.9H30.2L35 78.6zM79.3 53.3l11.6-2.5L72.1 84 79.3 53.3zM90.7 48.9l-11.4 2.5-5.9-33.1L90.7 48.9zM35 24.3l-5-10.8h38.2L35 24.3z" fill="#ffffff" data-fill-palette-color="accent"></path></svg></g></svg></g></svg></g><defs></defs></svg><rect width="395.52" height="51.49756643480492" fill="none" stroke="none" visibility="hidden"></rect></g></svg></g></svg>