<?xml version="1.0" standalone="no"?>
<!DOCTYPE svg PUBLIC "-//W3C//DTD SVG 20010904//EN"
 "http://www.w3.org/TR/2001/REC-SVG-20010904/DTD/svg10.dtd">
<svg version="1.0" xmlns="http://www.w3.org/2000/svg"
 width="1057.000000pt" height="1057.000000pt" viewBox="0 0 1057.000000 1057.000000"
 preserveAspectRatio="xMidYMid meet">

<g transform="translate(0.000000,1057.000000) scale(0.100000,-0.100000)"
fill="#000000" stroke="none">
<path d="M4965 10559 c-985 -58 -1949 -400 -2755 -978 -1120 -803 -1887 -2015
-2126 -3361 -173 -978 -74 -1960 292 -2893 67 -170 270 -590 283 -585 5 1
1031 570 2280 1262 l2271 1260 0 2653 0 2653 -52 -1 c-29 -1 -116 -6 -193 -10z"/>
<path d="M820 2463 c0 -13 156 -239 245 -358 369 -488 813 -903 1325 -1239
143 -95 312 -196 325 -196 3 0 5 405 5 900 l0 900 -950 0 c-522 0 -950 -3
-950 -7z"/>
</g>
</svg>
